<svg xmlns="http://www.w3.org/2000/svg" xmlns:xlink="http://www.w3.org/1999/xlink" width="1800" height="630" viewBox="0 0 1800 630">
<style type="text/css">
	.st0{fill:#9596AE;}
	.st1{fill:url(#SVGID_1_);}
	.st2{fill:url(#SVGID_2_);}
	.st3{fill:#FFFFFF;}
	.st4{fill:none;stroke:#9596AE;stroke-width:5;stroke-linecap:round;stroke-miterlimit:10;}
	.st5{fill:#2C82C9;}
</style>
<g id="Homebridge">
	<path id="Wordmark" class="st0" d="M1121.2,454.5h23.9v-25.6h10.5v62.5h-10.5v-27.8h-23.9v27.8h-10.5v-62.5h10.5V454.5z
		 M1192.5,492.2c-13.9,0-23.4-8.4-23.4-28.1v-8c0-19.7,9.4-28.1,23.4-28.1s23.5,8.4,23.5,28.1v8
		C1215.9,483.8,1206.5,492.2,1192.5,492.2z M1179.6,464.1c0,13.5,4.5,18.9,12.9,18.9c8.3,0,12.9-5.4,12.9-18.9v-8
		c0-13.5-4.6-18.9-12.9-18.9c-8.3,0-12.9,5.4-12.9,18.9V464.1z M1257.4,465.1l18-36.2h10.1v62.5h-10.1v-41.8l-14.3,29.8h-7.4
		l-14.1-29.5v41.6h-10.1v-62.5h10L1257.4,465.1z M1339.8,428.9v9.1H1312v16.5h25.1v9.1H1312v18.7h27.8v9.1h-38.3v-62.5L1339.8,428.9
		z M1372.1,428.9c14.7,0,22.2,5.4,22.2,16.2c0.2,6-3.5,11.5-9.1,13.6c7.1,2,11.1,6.9,11.1,14.8c0,9.4-6,17.9-22.2,17.9h-22v-62.5
		H1372.1z M1362.5,454.4h10.2c7.8,0,11-3.5,11-8.7c0-4.9-2.5-7.8-12.4-7.8h-8.8L1362.5,454.4z M1362.5,482.3h11
		c8.4,0,12.3-3.4,12.3-9.4c0-6.6-4.3-9.4-13.6-9.4h-9.7L1362.5,482.3z M1443.5,491.4l-12-25.4h-12.1v25.4h-10.5v-62.5h21.3
		c14.4,0,23,6.2,23,18.7c0,8.6-4.1,14.1-11.3,16.8l13.3,27.1H1443.5z M1429.4,457c8.9,0,13.2-2.4,13.2-9.4c0-7.1-4.3-9.5-13.2-9.5
		h-10.1V457L1429.4,457z M1477.8,491.4h-10.5v-62.5h10.5V491.4z M1494.7,491.4v-62.5h21.1c14,0,23.5,7.5,23.5,27.5v7.4
		c0,20-9.4,27.5-23.5,27.5L1494.7,491.4z M1528.7,463.8v-7.4c0-12.9-4-18.4-12.9-18.4h-10.6v44.3h10.6
		C1524.7,482.3,1528.7,476.7,1528.7,463.8z M1596.5,459.3v4.8c0,19.7-9,28.1-23,28.1c-14,0-23.4-8.4-23.4-28.1v-7.5
		c0-20.1,9.4-28.5,23.4-28.5c12.7,0,20.7,7.1,22.7,20.2h-10.1c-1.5-7.2-5.5-11-12.6-11c-8.3,0-12.9,5.4-12.9,18.9v8
		c0,13.5,4.5,18.9,12.9,18.9c8,0,12-4.7,12.7-14.6h-12.4v-9.2H1596.5z M1648.3,428.9v9.1h-27.8v16.5h25.1v9.1h-25.1v18.7h27.8v9.1
		H1610v-62.5L1648.3,428.9z"/>
	<g id="Icon">
		
			<linearGradient id="SVGID_1_" gradientUnits="userSpaceOnUse" x1="1379.53" y1="494.696" x2="1379.53" y2="247.7265" gradientTransform="matrix(1 0 0 -1 0 632)">
			<stop  offset="0" style="stop-color:#57277C"/>
			<stop  offset="1" style="stop-color:#491F59"/>
		</linearGradient>
		<circle class="st1" cx="1379.5" cy="260.8" r="123.5"/>
		
			<radialGradient id="SVGID_2_" cx="1379.53" cy="371.2113" r="123.4847" gradientTransform="matrix(1 0 0 -1 0 632)" gradientUnits="userSpaceOnUse">
			<stop  offset="0" style="stop-color:#000000;stop-opacity:0"/>
			<stop  offset="1" style="stop-color:#000000;stop-opacity:0.1"/>
		</radialGradient>
		<circle class="st2" cx="1379.5" cy="260.8" r="123.5"/>
		<path class="st3" d="M1463.3,248.2h-0.1l-15.1-15.1c-0.5-0.6-0.8-1.3-0.8-2.1v-34.8c0-7.4-6-13.3-13.4-13.4h-9.5
			c-7.4,0-13.4,6-13.4,13.4v0.2l-22.3-21.6c-5.3-5-13.6-5-18.8,0.2l-75.5,75.5c-5.2,5.2-5.2,13.7,0,18.9c0,0,0,0,0,0l0,0l7.2,7.1
			c5.2,5.2,13.6,5.2,18.8,0.1l58-57.1c1.1-1.1,3-1.1,4.1,0l56.8,56.8c1.1,1.1,1.1,3,0,4.1l-7,7c-1.1,1.1-3,1.1-4.1,0l-39.9-38.7
			c-5.3-5.1-13.6-5-18.8,0.2l-38.3,38.5c-5.2,5.2-5.2,13.6,0,18.9l7.1,7.1c5.2,5.2,13.6,5.2,18.8,0l20.6-20.4c1.1-1.1,3-1.1,4.1,0
			l20.5,20.2c1.1,1.1,1.2,2.9,0,4.1c0,0,0,0,0,0l-20.3,20.5c-0.1,0-0.2-0.1-0.3-0.1c-4.2,0-7.6,3.4-7.6,7.6c0,4.2,3.4,7.6,7.6,7.6
			c4.2,0,7.6-3.4,7.6-7.6v-0.1l20.4-20.4c5.2-5.2,5.2-13.7,0-18.9c0,0,0,0,0,0l-0.1-0.1l-20.5-20.2c-5.2-5.1-13.5-5.1-18.8,0
			L1350,306c-1.1,1.1-3,1.1-4.1,0l-7.1-7.1c-1.1-1.1-1.1-3,0-4.1l38.3-38.5c1.1-1.1,3-1.2,4.1,0l39.9,38.8c5.3,5.1,13.6,5,18.8-0.1
			l7-7c5.2-5.2,5.2-13.7,0-18.9l-56.9-56.9c-5.2-5.2-13.6-5.2-18.8-0.1l-58,57.1c-1.1,1.1-3,1.1-4.1,0l-7.2-7.1
			c-1.1-1.1-1.1-3,0-4.1l75.5-75.5c1.1-1.1,3-1.1,4.1,0l40,38.7v-24.9c0-1.6,1.3-2.9,2.9-2.9h9.4c1.6,0,2.9,1.3,2.9,2.9v34.9
			c0,3.6,1.4,7,3.9,9.5l15,15c0,0.1-0.1,0.2-0.1,0.3c0,4.2,3.4,7.6,7.6,7.6c4.2,0,7.6-3.4,7.6-7.6
			C1470.9,251.7,1467.5,248.3,1463.3,248.2L1463.3,248.2z"/>
	</g>
</g>
<g id="Divider">
	<line class="st4" x1="1046" y1="14.7" x2="950" y2="614.7"/>
</g>
<path id="Konnected" class="st5" d="M365,340.3c-1.3,0-2.3-0.4-3.2-1.1s-1.1-1.8-1.1-3.1v-52c0-1.3,0.4-2.3,1.1-3.2
	c0.7-0.9,1.8-1.1,3.2-1.1c1.2,0,2.2,0.4,3.1,1.1c0.9,0.7,1.1,1.8,1.1,3.2V336c0,1.2-0.4,2.2-1.1,3.1
	C367.3,339.9,366.2,340.3,365,340.3z M412.5,340.3c-1.2,0-2.3-0.4-3.1-1.2c-0.9-0.9-1.2-1.8-1.2-2.9v-28.8c0-4.5-0.9-8.3-2.6-11.3
	c-1.7-2.9-4-5.2-7.1-6.6c-2.9-1.5-6.4-2.2-10.1-2.2c-3.6,0-6.9,0.7-9.8,2.1c-2.9,1.3-5.2,3.3-6.9,5.8c-1.7,2.5-2.6,5.2-2.6,8.3h-6
	c0.1-4.7,1.3-8.8,3.8-12.4c2.3-3.7,5.5-6.5,9.3-8.6c3.9-2.1,8.2-3.2,13-3.2c5.3,0,9.9,1.1,14,3.3c4.2,2.2,7.4,5.4,9.8,9.6
	c2.3,4.2,3.6,9.3,3.6,15.3v28.7c0,1.2-0.4,2.2-1.2,2.9C414.7,339.8,413.7,340.3,412.5,340.3z M450.7,340.3c-1.3,0-2.3-0.4-3.2-1.1
	s-1.1-1.8-1.1-3.1v-52c0-1.3,0.4-2.3,1.1-3.2c0.7-0.9,1.8-1.1,3.2-1.1c1.2,0,2.2,0.4,3.1,1.1c0.9,0.7,1.1,1.8,1.1,3.2V336
	c0,1.2-0.4,2.2-1.1,3.1C453.1,339.9,452.1,340.3,450.7,340.3z M498.2,340.3c-1.2,0-2.3-0.4-3.1-1.2c-0.9-0.9-1.2-1.8-1.2-2.9v-28.8
	c0-4.5-0.9-8.3-2.6-11.3c-1.7-2.9-4-5.2-7.1-6.6c-2.9-1.5-6.4-2.2-10.1-2.2c-3.6,0-6.9,0.7-9.8,2.1c-2.9,1.3-5.2,3.3-6.9,5.8
	s-2.6,5.2-2.6,8.3h-6c0.1-4.7,1.3-8.8,3.8-12.4c2.3-3.7,5.5-6.5,9.3-8.6c3.9-2.1,8.2-3.2,13-3.2c5.3,0,9.9,1.1,14,3.3
	c4.2,2.2,7.4,5.4,9.8,9.6c2.3,4.2,3.6,9.3,3.6,15.3v28.7c0,1.2-0.4,2.2-1.2,2.9C500.4,339.8,499.4,340.3,498.2,340.3z M559.6,340.7
	c-6,0-11.3-1.3-15.8-3.9c-4.7-2.6-8.2-6.3-10.8-10.9c-2.6-4.7-3.9-9.9-3.9-15.9s1.2-11.4,3.7-15.9c2.5-4.5,5.9-8.2,10.2-10.9
	c4.3-2.7,9.3-3.9,15-3.9c5.6,0,10.4,1.2,14.6,3.8c4.2,2.6,7.4,6,9.7,10.5c2.3,4.5,3.4,9.6,3.4,15.3c0,1.2-0.4,2.1-1.1,2.8
	s-1.7,1.1-2.8,1.1h-47v-7.1h47.8l-4.8,3.4c0.1-4.3-0.7-8.1-2.3-11.5c-1.6-3.4-3.9-6-6.9-8c-2.9-2-6.5-2.8-10.7-2.8s-7.8,1-11,2.9
	c-3.2,2-5.6,4.8-7.4,8.2c-1.7,3.6-2.6,7.5-2.6,12c0,4.5,1,8.5,2.9,11.9c2,3.4,4.7,6.1,8,8.2c3.4,2,7.2,2.9,11.7,2.9
	c2.7,0,5.3-0.5,8-1.3c2.7-1,4.8-2.1,6.5-3.4c0.9-0.6,1.7-1,2.8-1.1c1,0,2,0.2,2.7,0.9c1,0.9,1.5,1.8,1.5,2.8c0,1-0.4,2-1.2,2.7
	c-2.5,2.1-5.5,3.8-9.3,5.2C566.6,340.1,563.1,340.7,559.6,340.7z M635.8,340.7c-5.8,0-11-1.3-15.5-4c-4.5-2.7-8.1-6.4-10.7-11
	s-3.9-9.8-3.9-15.7c0-5.9,1.2-11.2,3.8-15.8c2.5-4.7,5.9-8.3,10.3-11c4.3-2.7,9.3-4,15-4c4.5,0,8.6,0.9,12.4,2.7
	c3.8,1.7,7.1,4.4,9.9,8c0.9,0.9,1.1,1.8,0.9,2.8c-0.2,1-0.9,1.8-1.8,2.6c-0.9,0.6-1.7,0.7-2.7,0.6c-1-0.1-1.8-0.7-2.6-1.6
	c-4.3-4.9-9.7-7.2-16.1-7.2c-4.2,0-7.7,1-10.9,2.9c-3.2,2-5.5,4.7-7.2,8.2c-1.7,3.4-2.6,7.5-2.6,11.9s1,8.3,2.8,11.8
	c1.8,3.4,4.4,6.1,7.7,8.2c3.3,2.1,7.1,2.9,11.4,2.9c2.8,0,5.5-0.4,7.8-1.1s4.5-2,6.4-3.6c0.9-0.7,1.8-1.1,2.8-1.2
	c1-0.1,1.8,0.2,2.7,0.9c0.9,0.9,1.3,1.7,1.5,2.8c0.1,1-0.2,2-1.1,2.7C650.5,338.3,643.8,340.7,635.8,340.7z M681.8,289.5
	c-1.1,0-2.1-0.4-2.8-1.1c-0.7-0.7-1.1-1.6-1.1-2.6c0-1.1,0.4-2,1.1-2.7s1.6-1.1,2.8-1.1h28.1c1.1,0,2.1,0.4,2.8,1.1s1.1,1.6,1.1,2.7
	c0,1-0.4,1.8-1.1,2.6c-0.7,0.7-1.6,1.1-2.8,1.1H681.8z M709.3,340.3c-3.9,0-7.4-1-10.4-2.8c-3.1-1.8-5.5-4.4-7.2-7.6
	c-1.7-3.2-2.7-6.9-2.7-11v-54c0-1.2,0.4-2.3,1.1-3.1c0.7-0.9,1.8-1.2,3.1-1.2s2.3,0.4,3.1,1.2c0.9,0.9,1.2,1.8,1.2,3.1v54
	c0,3.8,1.1,6.9,3.3,9.2c2.2,2.5,5,3.6,8.5,3.6h2.9c1.2,0,2.1,0.4,2.8,1.2c0.7,0.9,1.1,1.8,1.1,3.1c0,1.2-0.5,2.2-1.3,3.1
	c-0.9,0.7-2,1.1-3.3,1.1h-2.1V340.3z M768.5,340.7c-6,0-11.3-1.3-15.8-3.9c-4.7-2.6-8.2-6.3-10.8-10.9c-2.6-4.7-3.9-9.9-3.9-15.9
	s1.2-11.4,3.7-15.9c2.5-4.5,5.9-8.2,10.2-10.9c4.3-2.7,9.3-3.9,15-3.9s10.4,1.2,14.6,3.8c4.2,2.6,7.4,6,9.7,10.5
	c2.3,4.5,3.4,9.6,3.4,15.3c0,1.2-0.4,2.1-1.1,2.8s-1.7,1.1-2.8,1.1h-47v-7.1h47.8l-4.8,3.4c0.1-4.3-0.7-8.1-2.3-11.5
	c-1.6-3.4-3.9-6-6.9-8c-2.9-2-6.5-2.8-10.7-2.8s-7.8,1-11,2.9c-3.2,2-5.6,4.8-7.4,8.2c-1.7,3.6-2.6,7.5-2.6,12c0,4.5,1,8.5,2.9,11.9
	c2,3.4,4.7,6.1,8,8.2c3.4,2,7.2,2.9,11.7,2.9c2.7,0,5.3-0.5,8-1.3c2.7-1,4.8-2.1,6.5-3.4c0.9-0.6,1.7-1,2.8-1.1c1,0,2,0.2,2.7,0.9
	c1,0.9,1.5,1.8,1.5,2.8c0,1-0.4,2-1.2,2.7c-2.5,2.1-5.5,3.8-9.3,5.2C775.5,340.1,771.9,340.7,768.5,340.7z M845.1,340.7
	c-5.8,0-11-1.3-15.7-4c-4.7-2.7-8.3-6.4-11-11c-2.7-4.7-4-9.9-4-15.8c0-5.8,1.3-11,3.9-15.7c2.6-4.7,6.1-8.3,10.7-11
	c4.5-2.7,9.6-4,15.2-4c4.9,0,9.3,1.1,13.4,3.2c3.9,2.1,7.1,4.9,9.6,8.3v-32.3c0-1.3,0.4-2.3,1.2-3.2c0.9-0.9,1.8-1.1,3.1-1.1
	c1.2,0,2.3,0.4,3.1,1.1c0.9,0.7,1.2,1.8,1.2,3.2v52.1c-0.1,5.8-1.6,10.9-4.3,15.5c-2.7,4.7-6.4,8.2-10.9,10.9
	C856.1,339.4,850.9,340.7,845.1,340.7z M845.1,333c4.3,0,8.1-1,11.4-3.1c3.3-2,6-4.8,8-8.2c2-3.4,2.9-7.4,2.9-11.8
	c0-4.3-1-8.2-2.9-11.8c-2-3.4-4.7-6.3-8-8.2c-3.3-2-7.1-2.9-11.4-2.9c-4.2,0-8,1-11.4,2.9c-3.4,2-6,4.8-8.1,8.2
	c-2,3.6-2.9,7.4-2.9,11.8s1,8.3,2.9,11.8c2,3.4,4.7,6.3,8.1,8.2C837.2,332,841,333,845.1,333z M287.4,290.3h-37.9l-7.7,7.7v38
	c0,1.6,1.3,2.9,2.9,2.9l0,0h42.7c1.6,0,2.9-1.3,2.9-2.9v-42.7C290.4,291.8,289.1,290.3,287.4,290.3
	C287.5,290.3,287.4,290.3,287.4,290.3z M285.7,334.2h-39.1v-34.1l4.9-4.9h34.2V334.2z M250.3,284.9h3.1v4h-3.1V284.9z M255,284.9
	h3.1v4H255V284.9z M259.8,284.9h3.1v4h-3.1V284.9z M264.6,284.9h3.1v4h-3.1V284.9z M269.3,284.9h3.1v4h-3.1V284.9z M278.8,284.9h3.1
	v4h-3.1V284.9z M274,284.9h3.1v4H274V284.9z M252.4,285.1h-1.2v-7.4l-3.6-3.6h-1v-1.2h1.5l4.3,4.3V285.1z M244.8,275.7
	c-1.2,0-2.2-1-2.2-2.2c0-1.2,1-2.2,2.2-2.2c1.2,0,2.2,1,2.2,2.2C247,274.8,246.2,275.7,244.8,275.7z M244.8,272.6c-0.6,0-1,0.5-1,1
	c0,0.5,0.5,1,1,1c0.5,0,1-0.5,1-1C245.8,273,245.4,272.6,244.8,272.6z M281,285.1h-1.2v-7.8l4.3-4.3h1.3v1.2h-0.9l-3.6,3.6V285.1z
	 M287.3,275.7c-1.2,0-2.2-1-2.2-2.2c0-1.2,1-2.2,2.2-2.2c1.2,0,2.2,1,2.2,2.2C289.5,274.8,288.5,275.7,287.3,275.7z M287.3,272.6
	c-0.6,0-1,0.5-1,1c0,0.5,0.5,1,1,1s1-0.5,1-1C288.2,273,287.9,272.6,287.3,272.6z M266.7,285.1h-1.2v-10.7l4.4-4.3h1.3v1.2h-0.9
	l-3.7,3.6V285.1z M273,272.9c-1.2,0-2.2-1-2.2-2.2c0-1.2,1-2.2,2.2-2.2c1.2,0,2.2,1,2.2,2.2C275.2,271.9,274.3,272.9,273,272.9z
	 M273,269.7c-0.6,0-1,0.5-1,1c0,0.5,0.5,1,1,1s1-0.5,1-1C274,270.2,273.5,269.7,273,269.7z M276.2,285.1H275v-10.7l3.9-3.9v-1.7
	l-4.9-4.9v-2.7h1.2v2.2l4.9,4.9v2.7l-3.9,3.9V285.1z M257.2,285.1H256v-12.6l-3.7-3.7h-4.2v-1.2h4.8l4.3,4.4V285.1z M260.8,266.5
	h1.2v18.5h-1.2V266.5z M246.3,270.5c-1.2,0-2.2-1-2.2-2.2c0-1.2,1-2.2,2.2-2.2s2.2,1,2.2,2.2C248.5,269.4,247.5,270.5,246.3,270.5z
	 M246.3,267.2c-0.6,0-1,0.5-1,1c0,0.5,0.5,1,1,1c0.5,0,1-0.5,1-1C247.3,267.6,246.8,267.2,246.3,267.2z M261.4,267.2
	c-1.2,0-2.2-1-2.2-2.2c0-1.2,1-2.2,2.2-2.2c1.2,0,2.2,1,2.2,2.2C263.6,266.2,262.6,267.2,261.4,267.2z M261.4,264c-0.6,0-1,0.5-1,1
	c0,0.5,0.5,1,1,1c0.5,0,1-0.5,1-1C262.4,264.5,261.9,264,261.4,264z M274.6,261.8c-1.2,0-2.2-1-2.2-2.2c0-1.2,1-2.2,2.2-2.2
	c1.2,0,2.2,1,2.2,2.2C276.8,260.8,275.8,261.8,274.6,261.8z M274.6,258.6c-0.6,0-1,0.5-1,1c0,0.5,0.5,1,1,1s1-0.5,1-1
	C275.6,259.1,275.2,258.6,274.6,258.6z M270.2,278.9h1.2v6.1h-1.2V278.9z M270.8,279.5c-1.2,0-2.2-1-2.2-2.2c0-1.2,1-2.2,2.2-2.2
	c1.2,0,2.2,1,2.2,2.2C273,278.6,272,279.5,270.8,279.5z M270.8,276.4c-0.6,0-1,0.5-1,1c0,0.5,0.5,1,1,1c0.5,0,1-0.5,1-1
	C271.8,276.8,271.4,276.4,270.8,276.4z M278.8,342.2h3.1v4h-3.1V342.2z M274,342.2h3.1v4H274V342.2z M269.3,342.2h3.1v4h-3.1V342.2z
	 M264.6,342.2h3.1v4h-3.1V342.2z M259.8,342.2h3.1v4h-3.1V342.2z M250.3,342.2h3.1v4h-3.1V342.2z M255,342.2h3.1v4H255V342.2z
	 M285.4,358.3h-1.3l-4.3-4.3v-8h1.2v7.5l3.6,3.6h0.9V358.3z M287.3,359.9c-1.2,0-2.2-1-2.2-2.2c0-1.2,1-2.2,2.2-2.2
	c1.2,0,2.2,1,2.2,2.2C289.5,358.9,288.5,359.9,287.3,359.9z M287.3,356.7c-0.6,0-1,0.5-1,1c0,0.5,0.5,1,1,1s1-0.5,1-1
	C288.2,357.2,287.9,356.7,287.3,356.7z M248.1,358.3h-1.5v-1.2h1l3.6-3.6V346h1.2v8L248.1,358.3z M244.8,359.9c-1.2,0-2.2-1-2.2-2.2
	c0-1.2,1-2.2,2.2-2.2c1.2,0,2.2,1,2.2,2.2C247,358.9,246.2,359.9,244.8,359.9z M244.8,356.7c-0.6,0-1,0.5-1,1c0,0.5,0.5,1,1,1
	c0.5,0,1-0.5,1-1C245.8,357.2,245.4,356.7,244.8,356.7z M262.4,361.1h-1.5v-1.2h1l3.6-3.7V346h1.2v10.8L262.4,361.1z M259.2,362.7
	c-1.2,0-2.2-1-2.2-2.2c0-1.2,1-2.2,2.2-2.2c1.2,0,2.2,1,2.2,2.2C261.4,361.7,260.4,362.7,259.2,362.7z M259.2,359.5
	c-0.6,0-1,0.5-1,1c0,0.5,0.5,1,1,1c0.5,0,1-0.5,1-1C260.2,360,259.7,359.5,259.2,359.5z M258.2,370.1H257v-2.2l-4.9-4.9v-2.7l3.9-4
	V346h1.2v10.8l-3.9,3.9v1.7l4.9,4.9V370.1z M284.1,363.6h-4.8l-4.3-4.3V346h1.2v12.8l3.6,3.6h4.3V363.6z M270.2,346h1.2v18.5h-1.2
	V346z M285.9,365.3c-1.2,0-2.2-1-2.2-2.2c0-1.2,1-2.2,2.2-2.2c1.2,0,2.2,1,2.2,2.2C288.1,364.3,287.1,365.3,285.9,365.3z M285.9,362
	c-0.6,0-1,0.5-1,1s0.5,1,1,1s1-0.5,1-1S286.4,362,285.9,362z M270.8,368.5c-1.2,0-2.2-1-2.2-2.2c0-1.2,1-2.2,2.2-2.2
	c1.2,0,2.2,1,2.2,2.2C273,367.5,272,368.5,270.8,368.5z M270.8,365.3c-0.6,0-1,0.5-1,1s0.5,1,1,1c0.5,0,1-0.5,1-1
	S271.4,365.3,270.8,365.3z M257.6,373.9c-1.2,0-2.2-1-2.2-2.2c0-1.2,1-2.2,2.2-2.2s2.2,1,2.2,2.2
	C259.8,372.9,258.8,373.9,257.6,373.9z M257.6,370.7c-0.6,0-1,0.5-1,1s0.5,1,1,1s1-0.5,1-1S258.1,370.7,257.6,370.7z M260.8,346h1.2
	v6.1h-1.2V346z M261.4,356.1c-1.2,0-2.2-1-2.2-2.2s1-2.2,2.2-2.2c1.2,0,2.2,1,2.2,2.2S262.6,356.1,261.4,356.1z M261.4,352.9
	c-0.6,0-1,0.5-1,1c0,0.5,0.5,1,1,1c0.5,0,1-0.5,1-1C262.4,353.4,261.9,352.9,261.4,352.9z M291.8,298.9h4v3.1h-4V298.9z
	 M291.9,303.7h4v3.1h-4V303.7z M291.8,308.5h4v3.1h-4V308.5z M291.9,313.3h4v3.1h-4V313.3z M291.9,317.9h4v3.1h-4V317.9z
	 M291.9,327.5h4v3.1h-4V327.5z M291.9,322.7h4v3.1h-4V322.7z M303.6,301.1h-7.8v-1.2h7.4l3.6-3.7v-0.9h1.2v1.3L303.6,301.1z
	 M307.2,295.7c-1.2,0-2.2-1-2.2-2.2c0-1.2,1-2.2,2.2-2.2c1.2,0,2.2,1,2.2,2.2C309.6,294.8,308.6,295.7,307.2,295.7z M307.2,292.5
	c-0.6,0-1,0.5-1,1c0,0.5,0.5,1,1,1s1-0.5,1-1C308.2,293,307.9,292.5,307.2,292.5z M307.9,334.1h-1.2v-0.9l-3.6-3.7h-7.4v-1.2h7.8
	l4.3,4.3V334.1z M307.2,338.2c-1.2,0-2.2-1-2.2-2.2c0-1.2,1-2.2,2.2-2.2c1.2,0,2.2,1,2.2,2.2C309.6,337.2,308.6,338.2,307.2,338.2z
	 M307.2,335c-0.6,0-1,0.5-1,1c0,0.5,0.5,1,1,1s1-0.5,1-1C308.2,335.5,307.9,335,307.2,335z M310.7,319.9h-1.2v-1l-3.6-3.6h-10.2
	v-1.2h10.7l4.3,4.3V319.9z M310.1,323.9c-1.2,0-2.2-1-2.2-2.2s1-2.2,2.2-2.2c1.2,0,2.2,1,2.2,2.2
	C312.3,322.8,311.3,323.9,310.1,323.9z M310.1,320.6c-0.6,0-1,0.5-1,1c0,0.5,0.5,1,1,1s1-0.5,1-1C311,321.1,310.7,320.6,310.1,320.6
	z M312.5,328.8h-2.7l-3.9-4h-10.2v-1.2h10.7l3.9,4h1.7l4.9-4.9h2.7v1.2h-2.2L312.5,328.8z M309,305.8h-13.2v-1.2h12.6l3.7-3.6v-4.3
	h1.2v4.8L309,305.8z M295.7,309.3h18.5v1.2h-18.5V309.3z M312.6,297.2c-1.2,0-2.2-1-2.2-2.2c0-1.2,1-2.2,2.2-2.2
	c1.2,0,2.2,1,2.2,2.2C314.8,296.2,313.9,297.2,312.6,297.2z M312.6,293.9c-0.6,0-1,0.5-1,1c0,0.5,0.5,1,1,1s1-0.5,1-1
	C313.6,294.4,313.1,293.9,312.6,293.9z M315.8,312.2c-1.2,0-2.2-1-2.2-2.2c0-1.2,1-2.2,2.2-2.2c1.2,0,2.2,1,2.2,2.2
	C318.2,311.2,317.1,312.2,315.8,312.2z M315.8,309c-0.6,0-1,0.5-1,1c0,0.5,0.5,1,1,1s1-0.5,1-1C316.8,309.5,316.4,309,315.8,309z
	 M321.2,325.5c-1.2,0-2.2-1-2.2-2.2c0-1.2,1-2.2,2.2-2.2c1.2,0,2.2,1,2.2,2.2C323.6,324.6,322.5,325.5,321.2,325.5z M321.2,322.3
	c-0.6,0-1,0.5-1,1s0.5,1,1,1s1-0.5,1-1S321.8,322.3,321.2,322.3z M295.7,318.9h6.1v1.2h-6.1V318.9z M303.4,321.7
	c-1.2,0-2.2-1-2.2-2.2c0-1.2,1-2.2,2.2-2.2c1.2,0,2.2,1,2.2,2.2C305.7,320.8,304.7,321.7,303.4,321.7z M303.4,318.4
	c-0.6,0-1,0.5-1,1c0,0.5,0.5,1,1,1s1-0.5,1-1C304.4,318.9,304.1,318.4,303.4,318.4z M237.5,327.5h4v3.1h-4V327.5z M237.5,322.7h4
	v3.1h-4V322.7z M237.5,317.9h4v3.1h-4V317.9z M237.5,313.3h4v3.1h-4V313.3z M237.5,308.5h4v3.1h-4V308.5z M237.5,298.9h4v3.1h-4
	V298.9z M237.5,303.7h4v3.1h-4V303.7z M226.7,334.1h-1.2v-1.5l4.3-4.3h8v1.2h-7.4l-3.7,3.7V334.1z M226.1,338.2
	c-1.2,0-2.2-1-2.2-2.2c0-1.2,1-2.2,2.2-2.2s2.2,1,2.2,2.2C228.3,337.2,227.3,338.2,226.1,338.2z M226.1,335c-0.6,0-1,0.5-1,1
	c0,0.5,0.5,1,1,1s1-0.5,1-1C227,335.5,226.7,335,226.1,335z M237.7,301.1h-8l-4.3-4.4v-1.3h1.2v0.9l3.7,3.7h7.4V301.1z M226.1,295.7
	c-1.2,0-2.2-1-2.2-2.2c0-1.2,1-2.2,2.2-2.2s2.2,1,2.2,2.2C228.3,294.8,227.3,295.7,226.1,295.7z M226.1,292.5c-0.6,0-1,0.5-1,1
	c0,0.5,0.5,1,1,1s1-0.5,1-1C227,293,226.7,292.5,226.1,292.5z M237.7,315.4H227l-4.4-4.3v-1.5h1.2v0.9l3.7,3.7h10.2V315.4z
	 M223.2,310.1c-1.2,0-2.2-1-2.2-2.2c0-1.2,1-2.2,2.2-2.2c1.2,0,2.2,1,2.2,2.2C225.4,309.1,224.5,310.1,223.2,310.1z M223.2,306.8
	c-0.6,0-1,0.5-1,1c0,0.5,0.5,1,1,1c0.5,0,1-0.5,1-1C224.2,307.3,223.9,306.8,223.2,306.8z M216.5,306.8h-2.7v-1.2h2.1l4.9-4.9h2.7
	l4,3.9h10.2v1.2H227l-4-3.9h-1.6L216.5,306.8z M221.4,332.8h-1.2V328l4.3-4.4h13.2v1.2H225l-3.6,3.7V332.8z M219.2,318.9h18.5v1.2
	h-18.5V318.9z M220.8,336.8c-1.2,0-2.2-1-2.2-2.2c0-1.2,1-2.2,2.2-2.2s2.2,1,2.2,2.2C223,335.7,222,336.8,220.8,336.8z M220.8,333.5
	c-0.6,0-1,0.5-1,1s0.5,1,1,1s1-0.5,1-1S221.3,333.5,220.8,333.5z M217.5,321.7c-1.2,0-2.2-1-2.2-2.2c0-1.2,1-2.2,2.2-2.2
	c1.2,0,2.2,1,2.2,2.2C219.8,320.8,218.7,321.7,217.5,321.7z M217.5,318.4c-0.6,0-1,0.5-1,1c0,0.5,0.5,1,1,1c0.5,0,1-0.5,1-1
	C218.5,318.9,218.1,318.4,217.5,318.4z M212.1,308.4c-1.2,0-2.2-1-2.2-2.2c0-1.2,1-2.2,2.2-2.2c1.2,0,2.2,1,2.2,2.2
	C214.4,307.4,213.3,308.4,212.1,308.4z M212.1,305.2c-0.6,0-1,0.5-1,1c0,0.5,0.5,1,1,1c0.5,0,1-0.5,1-1
	C213.1,305.7,212.7,305.2,212.1,305.2z M231.6,309.3h6.1v1.2h-6.1V309.3z M229.9,312.2c-1.2,0-2.2-1-2.2-2.2c0-1.2,1-2.2,2.2-2.2
	s2.2,1,2.2,2.2C232.2,311.2,231.1,312.2,229.9,312.2z M229.9,309c-0.6,0-1,0.5-1,1c0,0.5,0.5,1,1,1c0.5,0,1-0.5,1-1
	C230.8,309.5,230.5,309,229.9,309z M266.2,381.6c-36.9,0-66.8-30-66.8-66.8c0-36.9,30-66.8,66.8-66.8c36.9,0,66.8,30,66.8,66.8
	C333,351.7,303,381.6,266.2,381.6z M266.2,254c-33.5,0-60.7,27.2-60.7,60.7s27.2,60.7,60.7,60.7s60.7-27.2,60.7-60.7
	S299.6,254,266.2,254z M139.2,339.1c-1.2,0-2.2-0.4-3.1-1.1s-1.1-1.8-1.1-3.1v-77.8c0-1.2,0.4-2.2,1.1-3.1s1.8-1.1,3.1-1.1
	s2.2,0.4,3.1,1.1s1.1,1.8,1.1,3.1v77.9c0,1.2-0.4,2.2-1.1,3.1C141.6,339,140.5,339.1,139.2,339.1z M142,319l-5.2-5.6l37.8-34.1
	c0.9-0.9,1.8-1.2,2.8-1.1c1,0,1.8,0.5,2.7,1.3c0.9,0.9,1.2,1.8,1.1,2.8c0,1-0.5,1.8-1.3,2.6L142,319z M180.1,338.7
	c-1,0.9-2,1.1-2.9,1.1c-1-0.1-2-0.6-2.7-1.6l-24.5-30.3l6-5.3l24.9,30.5c0.7,0.9,1.1,1.8,1,2.8C181.5,336.9,181,337.8,180.1,338.7z"
	/>
</svg>
