<svg xmlns="http://www.w3.org/2000/svg" viewBox="0 0 1800 630">
  <path fill="#9596AE" d="M1393.7 440.9h13.9V426h6.1v36.4h-6.1v-16.2h-13.9v16.2h-6.1V426h6.1v14.9zm41.5 22c-8.1 0-13.6-4.9-13.6-16.4v-4.7c0-11.5 5.5-16.4 13.6-16.4s13.7 4.9 13.7 16.4v4.7c-.1 11.5-5.6 16.4-13.7 16.4zm-7.5-16.4c0 7.9 2.6 11 7.5 11 4.8 0 7.5-3.1 7.5-11v-4.7c0-7.9-2.7-11-7.5-11s-7.5 3.1-7.5 11v4.7zm45.3.6l10.5-21.1h5.9v36.4h-5.9v-24.3l-8.3 17.3h-4.3l-8.2-17.2v24.2h-5.9V426h5.8l10.4 21.1zm47.9-21.1v5.3h-16.2v9.6h14.6v5.3h-14.6v10.9h16.2v5.3h-22.3V426h22.3zm18.8 0c8.6 0 12.9 3.1 12.9 9.4.1 3.5-2 6.7-5.3 7.9 4.1 1.2 6.5 4 6.5 8.6 0 5.5-3.5 10.4-12.9 10.4h-12.8V426h11.6zm-5.6 14.9h5.9c4.5 0 6.4-2 6.4-5.1 0-2.9-1.5-4.5-7.2-4.5h-5.1v9.6zm0 16.2h6.4c4.9 0 7.2-2 7.2-5.5 0-3.8-2.5-5.5-7.9-5.5h-5.6v11zm47.2 5.3l-7-14.8h-7v14.8h-6.1V426h12.4c8.4 0 13.4 3.6 13.4 10.9 0 5-2.4 8.2-6.6 9.8l7.7 15.8-6.8-.1zm-8.2-20c5.2 0 7.7-1.4 7.7-5.5s-2.5-5.5-7.7-5.5h-5.9v11h5.9zm28.2 20h-6.1V426h6.1v36.4zm9.8 0V426h12.3c8.2 0 13.7 4.4 13.7 16v4.3c0 11.6-5.5 16-13.7 16l-12.3.1zm19.8-16.1V442c0-7.5-2.3-10.7-7.5-10.7h-6.2v25.8h6.2c5.2 0 7.5-3.2 7.5-10.8zm39.5-2.6v2.8c0 11.5-5.2 16.4-13.4 16.4s-13.6-4.9-13.6-16.4v-4.4c0-11.7 5.5-16.6 13.6-16.6 7.4 0 12.1 4.1 13.2 11.8h-5.9c-.9-4.2-3.2-6.4-7.3-6.4-4.8 0-7.5 3.1-7.5 11v4.7c0 7.9 2.6 11 7.5 11 4.7 0 7-2.7 7.4-8.5h-7.2v-5.4h13.2zm30.1-17.7v5.3h-16.2v9.6h14.6v5.3h-14.6v10.9h16.2v5.3h-22.3V426h22.3z"/>
  <linearGradient id="a" gradientUnits="userSpaceOnUse" x1="1544.04" y1="831.144" x2="1544.04" y2="1045.025" gradientTransform="translate(0 -664)">
    <stop offset="0" stop-color="#57277c"/>
    <stop offset="1" stop-color="#491f59"/>
  </linearGradient>
  <circle fill="url(#a)" cx="1544" cy="274.1" r="106.9"/>
  <radialGradient id="b" cx="1544.04" cy="938.085" r="106.94" gradientTransform="translate(0 -664)" gradientUnits="userSpaceOnUse">
    <stop offset="0" stop-opacity="0"/>
    <stop offset="1" stop-opacity=".1"/>
  </radialGradient>
  <circle fill="url(#b)" cx="1544" cy="274.1" r="106.9"/>
  <path fill="#FFF" d="M1616.6 263.2l-13.2-13.1c-.4-.5-.7-1.1-.7-1.8v-30.1c0-6.4-5.2-11.5-11.6-11.6h-8.2c-6.4 0-11.6 5.2-11.6 11.6v.2l-19.3-18.7c-4.6-4.3-11.8-4.3-16.3.2l-65.4 65.4c-4.5 4.5-4.5 11.9 0 16.4l6.2 6.1c4.5 4.5 11.8 4.5 16.3.1l50.2-49.4c1-1 2.6-1 3.6 0l49.2 49.2c1 1 1 2.6 0 3.6l-6.1 6.1c-1 1-2.6 1-3.6 0l-34.5-33.5c-4.6-4.4-11.8-4.3-16.3.2l-33.2 33.3c-4.5 4.5-4.5 11.8 0 16.4l6.1 6.1c4.5 4.5 11.8 4.5 16.3 0l17.8-17.7c1-1 2.6-1 3.6 0l17.8 17.5c1 1 1 2.5 0 3.6l-17.6 17.8c-.1 0-.2-.1-.3-.1-3.6 0-6.6 2.9-6.6 6.6s2.9 6.6 6.6 6.6c3.6 0 6.6-2.9 6.6-6.6v-.1l17.7-17.7c4.5-4.5 4.5-11.9 0-16.4l-.1-.1-17.8-17.5c-4.5-4.4-11.7-4.4-16.3 0l-17.6 17.7c-1 1-2.6 1-3.6 0l-6.1-6.1c-1-1-1-2.6 0-3.6l33.2-33.3c1-1 2.6-1 3.6 0l34.5 33.6c4.6 4.4 11.8 4.3 16.3-.1l6.1-6.1c4.5-4.5 4.5-11.9 0-16.4l-49.3-49.3c-4.5-4.5-11.8-4.5-16.3-.1l-50.2 49.4c-1 1-2.6 1-3.6 0l-6.2-6.1c-1-1-1-2.6 0-3.6l65.4-65.4c1-1 2.6-1 3.6 0l34.6 33.5v-21.6c0-1.4 1.1-2.5 2.5-2.5h8.1c1.4 0 2.5 1.1 2.5 2.5v30.2c0 3.1 1.2 6.1 3.4 8.2l13 13c0 .1-.1.2-.1.3 0 3.6 2.9 6.6 6.6 6.6 3.6 0 6.6-2.9 6.6-6.6.3-3.8-2.7-6.7-6.3-6.8z"/>
  <path fill="none" stroke="#9596AE" stroke-width="5" stroke-linecap="round" stroke-miterlimit="10" d="M1348.8 92.4L1277.7 537"/>
  <path fill="#2C82C9" d="M446.8 363.6c-1.9 0-3.4-.6-4.8-1.6-1.3-1-1.6-2.7-1.6-4.6v-77.9c0-1.9.6-3.4 1.6-4.8s2.7-1.6 4.8-1.6c1.8 0 3.3.6 4.6 1.6 1.3 1 1.6 2.7 1.6 4.8v77.7c0 1.8-.6 3.3-1.6 4.6-1.2 1.3-2.8 1.8-4.6 1.8zm71.1 0c-1.8 0-3.4-.6-4.6-1.8-1.3-1.3-1.8-2.7-1.8-4.3v-43.1c0-6.7-1.3-12.4-3.9-16.9-2.5-4.3-6-7.8-10.6-9.9-4.3-2.2-9.6-3.3-15.1-3.3-5.4 0-10.3 1-14.7 3.1-4.3 1.9-7.8 4.9-10.3 8.7-2.5 3.7-3.9 7.8-3.9 12.4h-9c.1-7 1.9-13.2 5.7-18.6 3.4-5.5 8.2-9.7 13.9-12.9 5.8-3.1 12.3-4.8 19.5-4.8 7.9 0 14.8 1.6 21 4.9 6.3 3.3 11.1 8.1 14.7 14.4 3.4 6.3 5.4 13.9 5.4 22.9v43c0 1.8-.6 3.3-1.8 4.3-1.2 1.2-2.7 1.9-4.5 1.9zm57.2 0c-1.9 0-3.4-.6-4.8-1.6-1.3-1-1.6-2.7-1.6-4.6v-77.9c0-1.9.6-3.4 1.6-4.8 1-1.3 2.7-1.6 4.8-1.6 1.8 0 3.3.6 4.6 1.6 1.3 1 1.6 2.7 1.6 4.8v77.7c0 1.8-.6 3.3-1.6 4.6-1 1.3-2.5 1.8-4.6 1.8zm71.2 0c-1.8 0-3.4-.6-4.6-1.8-1.3-1.3-1.8-2.7-1.8-4.3v-43.1c0-6.7-1.3-12.4-3.9-16.9-2.5-4.3-6-7.8-10.6-9.9-4.3-2.2-9.6-3.3-15.1-3.3-5.4 0-10.3 1-14.7 3.1-4.3 1.9-7.8 4.9-10.3 8.7-2.5 3.7-3.9 7.8-3.9 12.4h-9c.1-7 1.9-13.2 5.7-18.6 3.4-5.5 8.2-9.7 13.9-12.9 5.8-3.1 12.3-4.8 19.5-4.8 7.9 0 14.8 1.6 21 4.9 6.3 3.3 11.1 8.1 14.7 14.4 3.4 6.3 5.4 13.9 5.4 22.9v43c0 1.8-.6 3.3-1.8 4.3-1.2 1.2-2.7 1.9-4.5 1.9zm91.9.6c-9 0-16.9-1.9-23.7-5.8-7-3.9-12.3-9.4-16.2-16.3-3.9-7-5.8-14.8-5.8-23.8s1.8-17.1 5.5-23.8c3.7-6.7 8.8-12.3 15.3-16.3 6.4-4 13.9-5.8 22.5-5.8 8.4 0 15.6 1.8 21.9 5.7 6.3 3.9 11.1 9 14.5 15.7 3.4 6.7 5.1 14.4 5.1 22.9 0 1.8-.6 3.1-1.6 4.2s-2.5 1.6-4.2 1.6h-70.4v-10.6h71.6l-7.2 5.1c.1-6.4-1-12.1-3.4-17.2s-5.8-9-10.3-12c-4.3-3-9.7-4.2-16-4.2s-11.7 1.5-16.5 4.3c-4.8 3-8.4 7.2-11.1 12.3-2.5 5.4-3.9 11.2-3.9 18 0 6.7 1.5 12.7 4.3 17.8 3 5.1 7 9.1 12 12.3 5.1 3 10.8 4.3 17.5 4.3 4 0 7.9-.7 12-1.9 4-1.5 7.2-3.1 9.7-5.1 1.3-.9 2.5-1.5 4.2-1.6 1.5 0 3 .3 4 1.3 1.5 1.3 2.2 2.7 2.2 4.2s-.6 3-1.8 4c-3.7 3.1-8.2 5.7-13.9 7.8-5.8 2.1-11 2.9-16.3 2.9zm114.1 0c-8.7 0-16.5-1.9-23.2-6s-12.1-9.6-16-16.5-5.8-14.7-5.8-23.5 1.8-16.8 5.7-23.7c3.7-7 8.8-12.4 15.4-16.5 6.4-4 13.9-6 22.5-6 6.7 0 12.9 1.3 18.6 4 5.7 2.5 10.6 6.6 14.8 12 1.3 1.3 1.6 2.7 1.3 4.2s-1.3 2.7-2.7 3.9c-1.3.9-2.5 1-4 .9s-2.7-1-3.9-2.4c-6.4-7.3-14.5-10.8-24.1-10.8-6.3 0-11.5 1.5-16.3 4.3-4.8 3-8.2 7-10.8 12.3-2.5 5.1-3.9 11.2-3.9 17.8s1.5 12.4 4.2 17.7c2.7 5.1 6.6 9.1 11.5 12.3 4.9 3.1 10.6 4.3 17.1 4.3 4.2 0 8.2-.6 11.7-1.6 3.4-1 6.7-3 9.6-5.4 1.3-1 2.7-1.6 4.2-1.8 1.5-.1 2.7.3 4 1.3 1.3 1.3 1.9 2.5 2.2 4.2.1 1.5-.3 3-1.6 4-8.5 7.5-18.5 11-30.5 11zm68.9-76.6c-1.6 0-3.1-.6-4.2-1.6-1-1-1.6-2.4-1.6-3.9 0-1.6.6-3 1.6-4s2.4-1.6 4.2-1.6h42.1c1.6 0 3.1.6 4.2 1.6 1 1 1.6 2.4 1.6 4 0 1.5-.6 2.7-1.6 3.9-1 1-2.4 1.6-4.2 1.6h-42.1zm41.2 76c-5.8 0-11.1-1.5-15.6-4.2-4.6-2.7-8.2-6.6-10.8-11.4-2.5-4.8-4-10.3-4-16.5v-80.9c0-1.8.6-3.4 1.6-4.6 1-1.3 2.7-1.8 4.6-1.8s3.4.6 4.6 1.8c1.3 1.3 1.8 2.7 1.8 4.6v80.9c0 5.7 1.6 10.3 4.9 13.8 3.3 3.7 7.5 5.4 12.7 5.4h4.3c1.8 0 3.1.6 4.2 1.8 1 1.3 1.6 2.7 1.6 4.6 0 1.8-.7 3.3-1.9 4.6-1.3 1-3 1.6-4.9 1.6h-3.1V363.6zm88.6.6c-9 0-16.9-1.9-23.7-5.8-7-3.9-12.3-9.4-16.2-16.3-3.9-7-5.8-14.8-5.8-23.8s1.8-17.1 5.5-23.8c3.7-6.7 8.8-12.3 15.3-16.3 6.4-4 13.9-5.8 22.5-5.8 8.5 0 15.6 1.8 21.9 5.7 6.3 3.9 11.1 9 14.5 15.7 3.4 6.7 5.1 14.4 5.1 22.9 0 1.8-.6 3.1-1.6 4.2-1 1-2.5 1.6-4.2 1.6h-70.4v-10.6h71.6l-7.2 5.1c.1-6.4-1-12.1-3.4-17.2s-5.8-9-10.3-12c-4.3-3-9.7-4.2-16-4.2s-11.7 1.5-16.5 4.3c-4.8 3-8.4 7.2-11.1 12.3-2.5 5.4-3.9 11.2-3.9 18 0 6.7 1.5 12.7 4.3 17.8 3 5.1 7 9.1 12 12.3 5.1 3 10.8 4.3 17.5 4.3 4 0 7.9-.7 12-1.9 4-1.5 7.2-3.1 9.7-5.1 1.3-.9 2.5-1.5 4.2-1.6 1.5 0 3 .3 4 1.3 1.5 1.3 2.2 2.7 2.2 4.2s-.6 3-1.8 4c-3.7 3.1-8.2 5.7-13.9 7.8-5.8 2.1-11.2 2.9-16.3 2.9zm114.7 0c-8.7 0-16.5-1.9-23.5-6-7-4-12.4-9.6-16.5-16.5-4-7-6-14.8-6-23.7 0-8.7 1.9-16.5 5.8-23.5s9.1-12.4 16-16.5c6.7-4 14.4-6 22.8-6 7.3 0 13.9 1.6 20.1 4.8 5.8 3.1 10.6 7.3 14.4 12.4V241c0-1.9.6-3.4 1.8-4.8 1.3-1.3 2.7-1.6 4.6-1.6 1.8 0 3.4.6 4.6 1.6 1.3 1 1.8 2.7 1.8 4.8v78c-.1 8.7-2.4 16.3-6.4 23.2-4 7-9.6 12.3-16.3 16.3-6.7 3.8-14.5 5.7-23.2 5.7zm0-11.5c6.4 0 12.1-1.5 17.1-4.6 4.9-3 9-7.2 12-12.3 3-5.1 4.3-11.1 4.3-17.7 0-6.4-1.5-12.3-4.3-17.7-3-5.1-7-9.4-12-12.3-4.9-3-10.6-4.3-17.1-4.3-6.3 0-12 1.5-17.1 4.3-5.1 3-9 7.2-12.1 12.3-3 5.4-4.3 11.1-4.3 17.7s1.5 12.4 4.3 17.7c3 5.1 7 9.4 12.1 12.3 5.3 3.1 11 4.6 17.1 4.6zm-835.1-63.9h-56.8l-11.5 11.5v56.9c0 2.4 1.9 4.3 4.3 4.3h63.9c2.4 0 4.3-1.9 4.3-4.3v-63.9c.3-2.3-1.7-4.5-4.2-4.5zm-2.5 65.7h-58.6v-51.1l7.3-7.3H328v58.4zM275 280.7h4.6v6H275v-6zm7.1 0h4.6v6h-4.6v-6zm7.2 0h4.6v6h-4.6v-6zm7.2 0h4.6v6h-4.6v-6zm7 0h4.6v6h-4.6v-6zm14.2 0h4.6v6h-4.6v-6zm-7.2 0h4.6v6h-4.6v-6zm-32.3.3h-1.8v-11.1l-5.4-5.4h-1.5v-1.8h2.2l6.4 6.4V281zm-11.4-14.1c-1.8 0-3.3-1.5-3.3-3.3s1.5-3.3 3.3-3.3 3.3 1.5 3.3 3.3c0 2-1.2 3.3-3.3 3.3zm0-4.6c-.9 0-1.5.7-1.5 1.5s.7 1.5 1.5 1.5c.7 0 1.5-.7 1.5-1.5 0-.9-.6-1.5-1.5-1.5zM321 281h-1.8v-11.7l6.4-6.4h1.9v1.8h-1.3l-5.4 5.4V281h.2zm9.4-14.1c-1.8 0-3.3-1.5-3.3-3.3s1.5-3.3 3.3-3.3 3.3 1.5 3.3 3.3c0 2-1.5 3.3-3.3 3.3zm0-4.6c-.9 0-1.5.7-1.5 1.5s.7 1.5 1.5 1.5c.7 0 1.5-.7 1.5-1.5-.1-.9-.6-1.5-1.5-1.5zM299.6 281h-1.8v-16l6.6-6.4h1.9v1.8H305l-5.5 5.4V281h.1zm9.4-18.3c-1.8 0-3.3-1.5-3.3-3.3s1.5-3.3 3.3-3.3 3.3 1.5 3.3 3.3-1.3 3.3-3.3 3.3zm0-4.8c-.9 0-1.5.7-1.5 1.5 0 .7.7 1.5 1.5 1.5.7 0 1.5-.7 1.5-1.5 0-.7-.7-1.5-1.5-1.5zm4.8 23.1H312v-16l5.8-5.8v-2.5l-7.3-7.3v-4h1.8v3.3l7.3 7.3v4l-5.8 5.8V281zm-28.4 0h-1.8v-18.9l-5.5-5.5h-6.3v-1.8h7.2l6.4 6.6V281zm5.4-27.9h1.8v27.7h-1.8v-27.7zm-21.7 6c-1.8 0-3.3-1.5-3.3-3.3s1.5-3.3 3.3-3.3 3.3 1.5 3.3 3.3c-.1 1.7-1.6 3.3-3.3 3.3zm0-4.9c-.9 0-1.5.7-1.5 1.5 0 .7.7 1.5 1.5 1.5s1.5-.7 1.5-1.5c-.1-.9-.8-1.5-1.5-1.5zm22.6 0c-1.8 0-3.3-1.5-3.3-3.3 0-1.8 1.5-3.3 3.3-3.3 1.8 0 3.3 1.5 3.3 3.3 0 1.8-1.5 3.3-3.3 3.3zm0-4.8c-.9 0-1.5.7-1.5 1.5 0 .7.7 1.5 1.5 1.5.7 0 1.5-.7 1.5-1.5s-.8-1.5-1.5-1.5zm19.7-3.3c-1.8 0-3.3-1.5-3.3-3.3 0-1.8 1.5-3.3 3.3-3.3 1.8 0 3.3 1.5 3.3 3.3 0 1.8-1.5 3.3-3.3 3.3zm0-4.8c-.9 0-1.5.7-1.5 1.5 0 .7.7 1.5 1.5 1.5.7 0 1.5-.7 1.5-1.5 0-.7-.6-1.5-1.5-1.5zm-6.6 30.4h1.8v9.1h-1.8v-9.1zm.9.9c-1.8 0-3.3-1.5-3.3-3.3s1.5-3.3 3.3-3.3 3.3 1.5 3.3 3.3c0 2-1.5 3.3-3.3 3.3zm0-4.6c-.9 0-1.5.7-1.5 1.5 0 .7.7 1.5 1.5 1.5.7 0 1.5-.7 1.5-1.5 0-.9-.6-1.5-1.5-1.5zm12 98.5h4.6v6h-4.6v-6zm-7.2 0h4.6v6h-4.6v-6zm-7 0h4.6v6h-4.6v-6zm-7 0h4.6v6h-4.6v-6zm-7.2 0h4.6v6h-4.6v-6zm-14.3 0h4.6v6H275v-6zm7.1 0h4.6v6h-4.6v-6zm45.5 24.1h-1.9l-6.4-6.4v-12h1.8v11.2l5.4 5.4h1.3v1.8h-.2zm2.8 2.4c-1.8 0-3.3-1.5-3.3-3.3s1.5-3.3 3.3-3.3 3.3 1.5 3.3 3.3-1.5 3.3-3.3 3.3zm0-4.8c-.9 0-1.5.7-1.5 1.5 0 .7.7 1.5 1.5 1.5s1.5-.7 1.5-1.5c-.1-.7-.6-1.5-1.5-1.5zm-58.7 2.4h-2.2v-1.8h1.5l5.4-5.4v-11.2h1.8v12l-6.5 6.4zm-4.9 2.4c-1.8 0-3.3-1.5-3.3-3.3s1.5-3.3 3.3-3.3 3.3 1.5 3.3 3.3-1.2 3.3-3.3 3.3zm0-4.8c-.9 0-1.5.7-1.5 1.5 0 .7.7 1.5 1.5 1.5s1.5-.7 1.5-1.5c0-.7-.6-1.5-1.5-1.5zm26.4 6.6H291V393h1.5l5.4-5.5v-15.3h1.8v16.2l-6.5 6.4zm-4.8 2.4c-1.8 0-3.3-1.5-3.3-3.3s1.5-3.3 3.3-3.3 3.3 1.5 3.3 3.3-1.5 3.3-3.3 3.3zm0-4.8c-.9 0-1.5.7-1.5 1.5s.7 1.5 1.5 1.5c.7 0 1.5-.7 1.5-1.5s-.8-1.5-1.5-1.5zm-1.5 15.9h-1.8V405l-7.3-7.3v-4l5.8-6v-15.4h1.8v16.2l-5.8 5.8v2.5l7.3 7.3v4.2zm38.8-9.8h-7.2l-6.4-6.4v-19.9h1.8v19.2l5.4 5.4h6.4v1.7zm-20.9-26.3h1.8v27.7h-1.8v-27.7zm23.6 28.9c-1.8 0-3.3-1.5-3.3-3.3s1.5-3.3 3.3-3.3 3.3 1.5 3.3 3.3-1.6 3.3-3.3 3.3zm0-5c-.9 0-1.5.7-1.5 1.5 0 .7.7 1.5 1.5 1.5s1.5-.7 1.5-1.5c-.1-.7-.8-1.5-1.5-1.5zm-22.7 9.8c-1.8 0-3.3-1.5-3.3-3.3s1.5-3.3 3.3-3.3 3.3 1.5 3.3 3.3-1.5 3.3-3.3 3.3zm0-4.8c-.9 0-1.5.7-1.5 1.5s.7 1.5 1.5 1.5c.7 0 1.5-.7 1.5-1.5s-.6-1.5-1.5-1.5zM286 414c-1.8 0-3.3-1.5-3.3-3.3s1.5-3.3 3.3-3.3 3.3 1.5 3.3 3.3-1.5 3.3-3.3 3.3zm0-4.8c-.9 0-1.5.7-1.5 1.5 0 .7.7 1.5 1.5 1.5.7 0 1.5-.7 1.5-1.5s-.8-1.5-1.5-1.5zm4.8-37h1.8v9.1h-1.8v-9.1zm.9 15.1c-1.8 0-3.3-1.5-3.3-3.3s1.5-3.3 3.3-3.3 3.3 1.5 3.3 3.3-1.5 3.3-3.3 3.3zm0-4.8c-.9 0-1.5.7-1.5 1.5s.7 1.5 1.5 1.5 1.5-.7 1.5-1.5-.8-1.5-1.5-1.5zm45.5-80.8h6v4.6h-6v-4.6zm.1 7.1h6v4.6h-6v-4.6zm-.1 7.2h6v4.6h-6V316zm.1 7.2h6v4.6h-6v-4.6zm0 6.9h6v4.6h-6v-4.6zm0 14.4h6v4.6h-6v-4.6zm0-7.2h6v4.6h-6v-4.6zm17.6-32.4h-11.7v-1.8h11.1l5.4-5.5v-1.3h1.8v1.9l-6.6 6.7zm5.3-8c-1.8 0-3.3-1.5-3.3-3.3 0-1.8 1.5-3.3 3.3-3.3s3.3 1.5 3.3 3.3c.3 1.9-1.2 3.3-3.3 3.3zm0-4.8c-.9 0-1.5.7-1.5 1.5 0 .7.7 1.5 1.5 1.5.7 0 1.5-.7 1.5-1.5s-.4-1.5-1.5-1.5zm1.1 62.3h-1.8V353l-5.4-5.5H343v-1.8h11.7l6.4 6.4v2.2l.2.1zm-1.1 6.1c-1.8 0-3.3-1.5-3.3-3.3s1.5-3.3 3.3-3.3 3.3 1.5 3.3 3.3c.3 1.8-1.2 3.3-3.3 3.3zm0-4.8c-.9 0-1.5.7-1.5 1.5s.7 1.5 1.5 1.5c.7 0 1.5-.7 1.5-1.5s-.4-1.5-1.5-1.5zm5.3-22.6h-1.8v-1.5l-5.4-5.4H343v-1.8h16l6.4 6.4.1 2.3zm-.9 6c-1.8 0-3.3-1.5-3.3-3.3s1.5-3.3 3.3-3.3 3.3 1.5 3.3 3.3c0 1.6-1.5 3.3-3.3 3.3zm0-5c-.9 0-1.5.7-1.5 1.5 0 .7.7 1.5 1.5 1.5.7 0 1.5-.7 1.5-1.5-.2-.7-.6-1.5-1.5-1.5zm3.6 12.3h-4l-5.8-6H343v-1.8h16l5.8 6h2.5l7.3-7.3h4v1.8h-3.3l-7.1 7.3zm-5.3-34.4h-19.8v-1.8H362l5.5-5.4v-6.4h1.8v7.2l-6.4 6.4zm-19.9 5.2h27.7v1.8H343v-1.8zm25.3-18.1c-1.8 0-3.3-1.5-3.3-3.3s1.5-3.3 3.3-3.3 3.3 1.5 3.3 3.3-1.3 3.3-3.3 3.3zm0-4.9c-.9 0-1.5.7-1.5 1.5s.7 1.5 1.5 1.5c.7 0 1.5-.7 1.5-1.5s-.7-1.5-1.5-1.5zm4.8 27.4c-1.8 0-3.3-1.5-3.3-3.3s1.5-3.3 3.3-3.3 3.3 1.5 3.3 3.3c.3 1.8-1.3 3.3-3.3 3.3zm0-4.8c-.9 0-1.5.7-1.5 1.5s.7 1.5 1.5 1.5 1.5-.7 1.5-1.5-.6-1.5-1.5-1.5zm8.1 24.7c-1.8 0-3.3-1.5-3.3-3.3s1.5-3.3 3.3-3.3 3.3 1.5 3.3 3.3c.3 1.9-1.3 3.3-3.3 3.3zm0-4.8c-.9 0-1.5.7-1.5 1.5s.7 1.5 1.5 1.5c.7 0 1.5-.7 1.5-1.5s-.6-1.5-1.5-1.5zm-38.2-5.1h9.1v1.8H343v-1.8zm11.6 4.2c-1.8 0-3.3-1.5-3.3-3.3s1.5-3.3 3.3-3.3 3.3 1.5 3.3 3.3c.1 1.9-1.4 3.3-3.3 3.3zm0-4.9c-.9 0-1.5.7-1.5 1.5 0 .7.7 1.5 1.5 1.5.7 0 1.5-.7 1.5-1.5s-.5-1.5-1.5-1.5zm-98.7 13.6h6v4.6h-6v-4.6zm0-7.2h6v4.6h-6v-4.6zm0-7.2h6v4.6h-6v-4.6zm0-6.9h6v4.6h-6v-4.6zm0-7.2h6v4.6h-6V316zm0-14.3h6v4.6h-6v-4.6zm0 7.1h6v4.6h-6v-4.6zm-16.2 45.6h-1.8v-2.2l6.4-6.4h12v1.8h-11.1l-5.5 5.5v1.3zm-.9 6.1c-1.8 0-3.3-1.5-3.3-3.3s1.5-3.3 3.3-3.3 3.3 1.5 3.3 3.3-1.5 3.3-3.3 3.3zm0-4.8c-.9 0-1.5.7-1.5 1.5s.7 1.5 1.5 1.5 1.5-.7 1.5-1.5c-.2-.7-.6-1.5-1.5-1.5zm17.4-50.8h-12l-6.4-6.6v-1.9h1.8v1.3l5.5 5.5h11.1v1.7zm-17.4-8c-1.8 0-3.3-1.5-3.3-3.3 0-1.8 1.5-3.3 3.3-3.3s3.3 1.5 3.3 3.3c0 1.9-1.5 3.3-3.3 3.3zm0-4.8c-.9 0-1.5.7-1.5 1.5 0 .7.7 1.5 1.5 1.5s1.5-.7 1.5-1.5c-.2-.8-.6-1.5-1.5-1.5zm17.4 34.3h-16l-6.6-6.4v-2.2h1.8v1.3l5.5 5.5h15.3v1.8zm-21.7-8c-1.8 0-3.3-1.5-3.3-3.3s1.5-3.3 3.3-3.3 3.3 1.5 3.3 3.3-1.4 3.3-3.3 3.3zm0-4.9c-.9 0-1.5.7-1.5 1.5s.7 1.5 1.5 1.5 1.5-.7 1.5-1.5-.5-1.5-1.5-1.5zm-10.1 0h-4v-1.8h3.1l7.3-7.3h4l6 5.8h15.3v1.8h-16l-6-5.8h-2.4l-7.3 7.3zm7.4 38.9H230v-7.2l6.4-6.6h19.8v1.8h-19l-5.4 5.5v6.5zm-3.3-20.8h27.7v1.8h-27.7v-1.8zm2.4 26.8c-1.8 0-3.3-1.5-3.3-3.3s1.5-3.3 3.3-3.3c1.8 0 3.3 1.5 3.3 3.3 0 1.7-1.5 3.3-3.3 3.3zm0-4.9c-.9 0-1.5.7-1.5 1.5 0 .7.7 1.5 1.5 1.5.7 0 1.5-.7 1.5-1.5s-.8-1.5-1.5-1.5zm-5-17.7c-1.8 0-3.3-1.5-3.3-3.3s1.5-3.3 3.3-3.3c1.8 0 3.3 1.5 3.3 3.3.2 1.9-1.5 3.3-3.3 3.3zm0-4.9c-.9 0-1.5.7-1.5 1.5 0 .7.7 1.5 1.5 1.5.7 0 1.5-.7 1.5-1.5s-.6-1.5-1.5-1.5zm-8.1-15c-1.8 0-3.3-1.5-3.3-3.3s1.5-3.3 3.3-3.3c1.8 0 3.3 1.5 3.3 3.3.2 1.8-1.5 3.3-3.3 3.3zm0-4.8c-.9 0-1.5.7-1.5 1.5 0 .7.7 1.5 1.5 1.5.7 0 1.5-.7 1.5-1.5s-.6-1.5-1.5-1.5zm29.2 6.1h9.1v1.8H247v-1.8zm-2.5 4.4c-1.8 0-3.3-1.5-3.3-3.3 0-1.8 1.5-3.3 3.3-3.3 1.8 0 3.3 1.5 3.3 3.3.1 1.8-1.5 3.3-3.3 3.3zm0-4.8c-.9 0-1.5.7-1.5 1.5 0 .7.7 1.5 1.5 1.5.7 0 1.5-.7 1.5-1.5-.2-.8-.6-1.5-1.5-1.5zm54.4 108.7c-55.3 0-100-44.9-100-100 0-55.3 44.9-100 100-100 55.3 0 100 44.9 100 100 0 55.2-44.9 100-100 100zm0-191.1c-50.2 0-90.9 40.7-90.9 90.9s40.7 90.9 90.9 90.9 90.9-40.7 90.9-90.9-40.9-90.9-90.9-90.9zM108.7 361.9c-1.8 0-3.3-.6-4.6-1.6-1.3-1-1.6-2.7-1.6-4.6V239.1c0-1.8.6-3.3 1.6-4.6 1-1.3 2.7-1.6 4.6-1.6 1.9 0 3.3.6 4.6 1.6 1.3 1 1.6 2.7 1.6 4.6v116.7c0 1.8-.6 3.3-1.6 4.6-1 1.3-2.7 1.5-4.6 1.5zm4.2-30.1l-7.8-8.4 56.6-51.1c1.3-1.3 2.7-1.8 4.2-1.6 1.5 0 2.7.7 4 1.9 1.3 1.3 1.8 2.7 1.6 4.2 0 1.5-.7 2.7-1.9 3.9l-56.7 51.1zm57 29.5c-1.5 1.3-3 1.6-4.3 1.6-1.5-.1-3-.9-4-2.4l-36.7-45.4 9-7.9 37.3 45.7c1 1.3 1.6 2.7 1.5 4.2-.7 1.5-1.4 2.8-2.8 4.2z"/>
</svg>
